<svg xmlns="http://www.w3.org/2000/svg" width="375" viewBox="0 0 375 375" height="375" version="1.0"><defs><clipPath id="a"><path d="M 139 79.222656 L 166 79.222656 L 166 113 L 139 113 Z M 139 79.222656"/></clipPath><clipPath id="b"><path d="M 142 79.222656 L 166 79.222656 L 166 99 L 142 99 Z M 142 79.222656"/></clipPath><clipPath id="c"><path d="M 205 79.222656 L 231 79.222656 L 231 113 L 205 113 Z M 205 79.222656"/></clipPath><clipPath id="d"><path d="M 205 79.222656 L 228 79.222656 L 228 99 L 205 99 Z M 205 79.222656"/></clipPath></defs><path fill="#DF550F" d="M 251.40625 278.507812 C 251.40625 278.507812 228.203125 248.183594 222.242188 237.011719 C 222.242188 237.011719 210.539062 243.402344 200.136719 251.582031 C 191.257812 258.5625 178.8125 258.5625 169.9375 251.582031 C 159.53125 243.402344 147.832031 237.011719 147.832031 237.011719 C 141.867188 248.183594 118.667969 278.507812 118.667969 278.507812 C 120.582031 286.378906 123.132812 293.28125 123.132812 293.28125 C 132.066406 290.058594 151.871094 283.292969 166.84375 278.3125 C 178.65625 274.386719 191.417969 274.386719 203.230469 278.3125 C 218.199219 283.292969 238.003906 290.058594 246.941406 293.28125 C 246.941406 293.28125 249.488281 286.378906 251.40625 278.507812"/><path fill="#FF8133" d="M 257.339844 273.375 C 258.421875 270.75 257.710938 267.964844 255.742188 267.148438 C 253.777344 266.332031 251.304688 267.800781 250.21875 270.425781 C 249.132812 273.046875 249.84375 275.835938 251.8125 276.652344 C 253.777344 277.464844 256.25 276 257.339844 273.375"/><path fill="#FF8133" d="M 262.871094 278.929688 C 264.605469 276.683594 264.640625 273.804688 262.957031 272.507812 C 261.269531 271.207031 258.496094 271.976562 256.765625 274.226562 C 255.035156 276.476562 255 279.355469 256.683594 280.652344 C 258.371094 281.953125 261.140625 281.183594 262.871094 278.929688"/><path fill="#FF8133" d="M 267.46875 284.554688 C 269.636719 282.71875 270.273438 279.910156 268.894531 278.289062 C 267.519531 276.664062 264.648438 276.835938 262.484375 278.671875 C 260.320312 280.511719 259.683594 283.3125 261.058594 284.941406 C 262.433594 286.5625 265.304688 286.390625 267.46875 284.554688"/><path fill="#FF8133" d="M 260.804688 288.800781 C 255.816406 293.835938 248.164062 295.960938 244.714844 292.539062 C 241.265625 289.113281 243.332031 281.441406 248.320312 276.40625 C 253.3125 271.371094 255.28125 274.980469 258.726562 278.40625 C 262.171875 281.828125 265.796875 283.769531 260.804688 288.800781"/><path fill="#FFCCA3" d="M 247.300781 290.953125 C 246.636719 290.292969 246.492188 288.757812 246.921875 286.949219 C 247.492188 284.5625 248.988281 281.96875 250.925781 280.011719 C 251.242188 279.695312 251.515625 279.449219 251.746094 279.257812 C 252.222656 278.863281 253.207031 279.019531 253.777344 279.585938 C 254.128906 279.9375 254.492188 280.320312 254.789062 280.636719 C 255.222656 281.089844 255.667969 281.5625 256.144531 282.035156 C 256.617188 282.503906 257.089844 282.945312 257.550781 283.375 C 257.867188 283.671875 258.253906 284.03125 258.605469 284.378906 C 259.175781 284.949219 259.339844 285.933594 258.949219 286.410156 C 258.761719 286.644531 258.515625 286.917969 258.203125 287.234375 C 255.636719 289.820312 252.078125 291.558594 249.339844 291.558594 C 248.6875 291.558594 247.804688 291.453125 247.300781 290.953125"/><path fill="#FF8133" d="M 112.734375 273.375 C 111.652344 270.75 112.363281 267.964844 114.332031 267.148438 C 116.296875 266.332031 118.769531 267.800781 119.855469 270.425781 C 120.941406 273.046875 120.226562 275.835938 118.261719 276.652344 C 116.296875 277.464844 113.824219 276 112.734375 273.375"/><path fill="#FF8133" d="M 107.203125 278.929688 C 105.46875 276.683594 105.433594 273.804688 107.121094 272.507812 C 108.804688 271.207031 111.578125 271.976562 113.308594 274.226562 C 115.039062 276.476562 115.074219 279.355469 113.390625 280.652344 C 111.703125 281.953125 108.933594 281.183594 107.203125 278.929688"/><path fill="#FF8133" d="M 102.601562 284.554688 C 100.441406 282.71875 99.800781 279.910156 101.179688 278.289062 C 102.554688 276.664062 105.425781 276.835938 107.589844 278.671875 C 109.753906 280.511719 110.390625 283.3125 109.015625 284.941406 C 107.640625 286.5625 104.769531 286.390625 102.601562 284.554688"/><path fill="#FF8133" d="M 109.265625 288.800781 C 114.257812 293.835938 121.910156 295.960938 125.359375 292.539062 C 128.808594 289.113281 126.742188 281.441406 121.753906 276.40625 C 116.761719 271.371094 114.792969 274.980469 111.347656 278.40625 C 107.898438 281.828125 104.277344 283.769531 109.265625 288.800781"/><path fill="#FFCCA3" d="M 122.773438 290.953125 C 123.4375 290.292969 123.582031 288.757812 123.148438 286.949219 C 122.582031 284.5625 121.085938 281.96875 119.148438 280.011719 C 118.832031 279.695312 118.558594 279.449219 118.328125 279.257812 C 117.851562 278.863281 116.867188 279.019531 116.296875 279.585938 C 115.941406 279.9375 115.582031 280.320312 115.285156 280.636719 C 114.851562 281.089844 114.40625 281.5625 113.929688 282.035156 C 113.457031 282.503906 112.984375 282.945312 112.523438 283.375 C 112.207031 283.671875 111.820312 284.03125 111.46875 284.378906 C 110.898438 284.949219 110.734375 285.933594 111.125 286.410156 C 111.3125 286.644531 111.558594 286.917969 111.871094 287.234375 C 114.4375 289.820312 117.996094 291.558594 120.734375 291.558594 C 121.386719 291.558594 122.269531 291.453125 122.773438 290.953125"/><path fill="#F26F2C" d="M 223.46875 216.597656 C 223.46875 248.984375 206.261719 263.492188 185.035156 263.492188 C 163.8125 263.492188 146.601562 248.984375 146.601562 216.597656 C 146.601562 184.207031 163.8125 167.5 185.035156 167.5 C 206.261719 167.5 223.46875 184.207031 223.46875 216.597656"/><g clip-path="url(#a)"><path fill="#FFCCA3" d="M 165.035156 90.738281 C 160.285156 86.566406 146.550781 79.214844 142.328125 79.609375 C 137.015625 88.96875 141.910156 108.738281 142.5625 112.648438 C 146.054688 108.179688 165.035156 90.738281 165.035156 90.738281"/></g><g clip-path="url(#b)"><path fill="#FF8133" d="M 157.03125 98.199219 C 153.054688 93.578125 145.8125 83.753906 142.253906 79.851562 C 142.28125 79.769531 142.300781 79.683594 142.328125 79.609375 C 146.550781 79.214844 160.285156 86.566406 165.035156 90.738281 C 165.035156 90.738281 161.527344 94.765625 157.03125 98.199219"/></g><g clip-path="url(#c)"><path fill="#FFCCA3" d="M 205.039062 90.738281 C 209.789062 86.566406 223.523438 79.214844 227.742188 79.609375 C 233.058594 88.96875 228.164062 108.738281 227.507812 112.648438 C 224.015625 108.179688 205.039062 90.738281 205.039062 90.738281"/></g><g clip-path="url(#d)"><path fill="#FF8133" d="M 213.042969 98.199219 C 217.015625 93.578125 224.261719 83.753906 227.820312 79.851562 C 227.792969 79.769531 227.769531 79.683594 227.742188 79.609375 C 223.523438 79.214844 209.789062 86.566406 205.039062 90.738281 C 205.039062 90.738281 208.546875 94.765625 213.042969 98.199219"/></g><path fill="#FF8133" d="M 138.355469 131.628906 C 138.355469 157.429688 159.253906 178.34375 185.035156 178.34375 C 210.816406 178.34375 231.71875 157.429688 231.71875 131.628906 C 231.71875 105.832031 210.816406 84.914062 185.035156 84.914062 C 159.253906 84.914062 138.355469 105.832031 138.355469 131.628906"/><path fill="#CC2900" d="M 218.222656 237.546875 C 234.757812 236.125 252.617188 232.847656 265.226562 221.128906 C 271.023438 215.746094 275.238281 209.023438 277.476562 201.410156 C 278.042969 199.480469 278.554688 197.523438 278.886719 195.535156 C 279.074219 194.386719 279.234375 193.230469 279.460938 192.089844 C 280.113281 188.820312 282.046875 185.894531 284.796875 184.023438 C 290.492188 180.136719 298.484375 181.589844 302.453125 187.222656 C 304.375 189.957031 305.160156 193.386719 304.613281 196.683594 C 304.402344 197.953125 303.957031 199.132812 303.480469 200.316406 C 302.792969 202.027344 302.125 203.742188 301.339844 205.410156 C 297.582031 213.398438 292.605469 221.121094 285.945312 227.011719 C 282.539062 230.019531 278.980469 232.703125 275.050781 235 C 271.011719 237.359375 266.691406 239.191406 262.246094 240.625 C 253.511719 243.433594 244.246094 244.472656 235.097656 244.339844 C 230.835938 244.277344 226.578125 243.972656 222.34375 243.472656 C 220.941406 243.308594 219.535156 243.136719 218.136719 242.9375 C 216.726562 242.742188 215.65625 241.507812 215.753906 240.066406 C 215.84375 238.75 216.90625 237.660156 218.222656 237.546875"/><path fill="#331603" d="M 161.609375 151.375 C 161.523438 151.375 161.433594 151.359375 161.347656 151.324219 C 152.703125 147.996094 143.308594 147.054688 134.175781 148.589844 C 133.769531 148.65625 133.398438 148.390625 133.332031 147.988281 C 133.265625 147.589844 133.535156 147.207031 133.933594 147.140625 C 143.324219 145.5625 152.988281 146.535156 161.875 149.953125 C 162.253906 150.101562 162.441406 150.523438 162.296875 150.90625 C 162.183594 151.195312 161.90625 151.375 161.609375 151.375"/><path fill="#331603" d="M 160.9375 154.609375 C 160.859375 154.609375 160.785156 154.597656 160.707031 154.574219 C 153.359375 152.136719 145.175781 151.835938 137.671875 153.722656 C 137.28125 153.824219 136.878906 153.585938 136.78125 153.191406 C 136.679688 152.796875 136.921875 152.398438 137.3125 152.300781 C 145.089844 150.339844 153.558594 150.652344 161.167969 153.179688 C 161.554688 153.308594 161.761719 153.722656 161.632812 154.109375 C 161.53125 154.414062 161.246094 154.609375 160.9375 154.609375"/><path fill="#331603" d="M 138.605469 161.867188 C 138.304688 161.867188 138.019531 161.679688 137.914062 161.375 C 137.78125 160.992188 137.980469 160.574219 138.363281 160.441406 C 146.308594 157.648438 154.9375 156.582031 163.324219 157.351562 C 163.726562 157.386719 164.023438 157.746094 163.988281 158.148438 C 163.949219 158.554688 163.601562 158.859375 163.1875 158.8125 C 155.015625 158.0625 146.59375 159.105469 138.851562 161.824219 C 138.769531 161.851562 138.6875 161.867188 138.605469 161.867188"/><path fill="#331603" d="M 208.460938 151.375 C 208.167969 151.375 207.890625 151.195312 207.777344 150.90625 C 207.632812 150.523438 207.820312 150.101562 208.199219 149.953125 C 217.085938 146.53125 226.75 145.5625 236.140625 147.140625 C 236.539062 147.207031 236.808594 147.589844 236.742188 147.988281 C 236.675781 148.390625 236.300781 148.65625 235.894531 148.589844 C 226.765625 147.054688 217.367188 148 208.726562 151.324219 C 208.640625 151.359375 208.550781 151.375 208.460938 151.375"/><path fill="#331603" d="M 209.136719 154.609375 C 208.828125 154.609375 208.542969 154.414062 208.4375 154.109375 C 208.3125 153.722656 208.519531 153.308594 208.90625 153.179688 C 216.511719 150.652344 224.984375 150.34375 232.761719 152.300781 C 233.152344 152.398438 233.390625 152.796875 233.292969 153.191406 C 233.191406 153.582031 232.792969 153.820312 232.402344 153.722656 C 224.894531 151.832031 216.714844 152.136719 209.367188 154.574219 C 209.289062 154.597656 209.214844 154.609375 209.136719 154.609375"/><path fill="#331603" d="M 231.464844 161.867188 C 231.386719 161.867188 231.304688 161.851562 231.222656 161.824219 C 223.476562 159.105469 215.058594 158.0625 206.882812 158.8125 C 206.476562 158.851562 206.121094 158.554688 206.085938 158.148438 C 206.050781 157.746094 206.347656 157.386719 206.75 157.351562 C 215.132812 156.582031 223.761719 157.648438 231.710938 160.441406 C 232.089844 160.574219 232.292969 160.992188 232.160156 161.375 C 232.050781 161.679688 231.769531 161.867188 231.464844 161.867188"/><path fill="#E0DED1" d="M 184.738281 195.964844 C 179.421875 187.191406 154.933594 167.5 132.695312 167.5 C 132.695312 174 135.726562 253.902344 135.726562 253.902344 C 144.488281 253.902344 178.117188 263.011719 182.902344 268.921875 C 182.902344 258.894531 184.738281 195.964844 184.738281 195.964844"/><path fill="#D9D7CA" d="M 185.652344 270.703125 L 134.15625 249.480469 C 134.15625 249.480469 129.410156 205.222656 129.410156 170.792969 C 163.855469 172.5625 185.652344 197.175781 185.652344 197.175781 L 185.652344 270.703125"/><path fill="#D1CFC3" d="M 185.660156 270.703125 L 132.46875 250.066406 C 132.46875 250.066406 124.496094 202.449219 123.820312 175.941406 C 152.90625 165.695312 184.332031 195.964844 184.332031 195.964844 L 185.660156 270.703125"/><path fill="#A8A8A8" d="M 181.726562 268.160156 L 130.882812 252.773438 C 130.882812 252.773438 121.40625 196.617188 121.40625 180.898438 C 160.746094 176.824219 182.902344 195.964844 182.902344 195.964844 L 181.726562 268.160156"/><path fill="#0089B3" d="M 181.503906 271.585938 C 157.460938 257.542969 129.285156 256.390625 129.285156 256.390625 L 120.339844 182.351562 C 120.339844 182.351562 160.324219 179.007812 181.503906 195.964844 C 182.003906 211.460938 181.503906 254.945312 181.503906 271.585938"/><path fill="#E0DED1" d="M 185.320312 195.964844 C 190.640625 187.191406 215.125 167.5 237.363281 167.5 C 237.363281 174 234.332031 253.902344 234.332031 253.902344 C 225.570312 253.902344 191.941406 263.011719 187.15625 268.921875 C 187.15625 258.894531 185.320312 195.964844 185.320312 195.964844"/><path fill="#D9D7CA" d="M 184.40625 270.703125 L 235.90625 249.480469 C 235.90625 249.480469 240.652344 205.222656 240.652344 170.792969 C 206.203125 172.5625 184.40625 197.175781 184.40625 197.175781 L 184.40625 270.703125"/><path fill="#D1CFC3" d="M 184.398438 270.703125 L 237.589844 250.066406 C 237.589844 250.066406 245.5625 202.449219 246.238281 175.941406 C 217.152344 165.695312 185.726562 195.964844 185.726562 195.964844 L 184.398438 270.703125"/><path fill="#A8A8A8" d="M 188.332031 268.160156 L 240.15625 252.527344 C 240.15625 252.527344 248.652344 196.617188 248.652344 180.898438 C 209.3125 176.824219 187.15625 195.964844 187.15625 195.964844 L 188.332031 268.160156"/><path fill="#33CFFF" d="M 188.550781 271.585938 C 212.597656 257.542969 240.773438 256.390625 240.773438 256.390625 L 249.722656 182.351562 C 249.722656 182.351562 209.734375 179.007812 188.550781 195.964844 C 188.054688 211.460938 188.550781 254.945312 188.550781 271.585938"/><path fill="#0069A1" d="M 185.027344 196.855469 C 183.511719 196.855469 181.503906 196.636719 181.503906 195.964844 L 181.503906 271.585938 L 188.550781 271.585938 L 188.550781 195.964844 C 188.550781 196.636719 186.429688 196.855469 185.027344 196.855469"/><path fill="#0069A1" d="M 188.550781 271.585938 C 188.550781 272.257812 186.976562 272.800781 185.027344 272.800781 C 183.082031 272.800781 181.503906 272.257812 181.503906 271.585938 C 181.503906 270.914062 183.082031 270.371094 185.027344 270.371094 C 186.976562 270.371094 188.550781 270.914062 188.550781 271.585938"/><path fill="#F2F2F2" d="M 188.550781 254.855469 L 188.550781 254.019531 C 187.472656 254.1875 186.386719 254.285156 185.300781 254.285156 C 184.03125 254.285156 182.761719 254.160156 181.503906 253.925781 L 181.503906 254.769531 C 182.761719 254.996094 184.03125 255.117188 185.300781 255.117188 C 186.386719 255.117188 187.472656 255.023438 188.550781 254.855469"/><path fill="#F2F2F2" d="M 188.550781 209.683594 C 187.40625 209.867188 186.257812 209.96875 185.105469 209.96875 C 183.902344 209.96875 182.699219 209.863281 181.503906 209.664062 L 181.503906 210.5 C 182.699219 210.695312 183.902344 210.800781 185.105469 210.800781 C 186.257812 210.800781 187.40625 210.703125 188.550781 210.523438 L 188.550781 209.683594"/><path fill="#F2F2F2" d="M 185.300781 206.269531 C 184.03125 206.269531 182.761719 206.148438 181.503906 205.914062 L 181.503906 206.757812 C 182.761719 206.988281 184.03125 207.101562 185.300781 207.101562 C 186.386719 207.101562 187.472656 207.011719 188.550781 206.84375 L 188.550781 206.007812 C 187.472656 206.175781 186.386719 206.269531 185.300781 206.269531"/><path fill="#F2F2F2" d="M 188.550781 258.535156 L 188.550781 257.695312 C 187.40625 257.882812 186.257812 257.980469 185.105469 257.980469 C 183.902344 257.980469 182.699219 257.878906 181.503906 257.675781 L 181.503906 258.511719 C 182.699219 258.710938 183.902344 258.8125 185.105469 258.8125 C 186.257812 258.8125 187.40625 258.714844 188.550781 258.535156"/><path fill="#DF550F" d="M 129.8125 217.25 C 132.300781 218.613281 133.492188 221.234375 132.46875 223.105469 C 131.449219 224.96875 128.601562 225.382812 126.113281 224.019531 C 123.625 222.652344 122.433594 220.035156 123.457031 218.164062 C 124.476562 216.296875 127.324219 215.890625 129.8125 217.25"/><path fill="#DF550F" d="M 129.148438 209.894531 C 131.988281 209.96875 134.242188 211.753906 134.1875 213.882812 C 134.132812 216.011719 131.785156 217.679688 128.949219 217.605469 C 126.113281 217.53125 123.859375 215.746094 123.914062 213.613281 C 123.96875 211.484375 126.3125 209.820312 129.148438 209.894531"/><path fill="#DF550F" d="M 124.003906 204.527344 C 126.394531 203 129.261719 203.214844 130.410156 205.007812 C 131.554688 206.800781 130.546875 209.496094 128.15625 211.027344 C 125.765625 212.554688 122.898438 212.339844 121.75 210.546875 C 120.605469 208.753906 121.613281 206.058594 124.003906 204.527344"/><path fill="#DF550F" d="M 126.113281 224.019531 C 123.046875 222.351562 119.738281 220.855469 118.804688 214.929688 C 117.875 209.003906 123.332031 205.023438 123.332031 205.023438 C 128.640625 209.902344 126.113281 224.019531 126.113281 224.019531"/><path fill="#DF550F" d="M 240.261719 217.25 C 237.773438 218.613281 236.582031 221.234375 237.601562 223.105469 C 238.625 224.96875 241.46875 225.382812 243.960938 224.019531 C 246.449219 222.652344 247.640625 220.035156 246.621094 218.164062 C 245.597656 216.296875 242.75 215.890625 240.261719 217.25"/><path fill="#DF550F" d="M 240.925781 209.894531 C 238.085938 209.96875 235.832031 211.753906 235.886719 213.882812 C 235.941406 216.011719 238.289062 217.679688 241.125 217.605469 C 243.960938 217.53125 246.214844 215.746094 246.160156 213.613281 C 246.105469 211.484375 243.757812 209.820312 240.925781 209.894531"/><path fill="#DF550F" d="M 246.070312 204.527344 C 243.679688 203 240.8125 203.214844 239.664062 205.007812 C 238.519531 206.800781 239.527344 209.496094 241.917969 211.027344 C 244.308594 212.554688 247.175781 212.339844 248.324219 210.546875 C 249.46875 208.753906 248.460938 206.058594 246.070312 204.527344"/><path fill="#DF550F" d="M 243.960938 224.019531 C 247.027344 222.351562 250.339844 220.855469 251.265625 214.929688 C 252.195312 209.003906 246.742188 205.023438 246.742188 205.023438 C 241.433594 209.902344 243.960938 224.019531 243.960938 224.019531"/><path fill="#FFF" d="M 210.019531 122.113281 C 206.1875 122.113281 203.074219 126.589844 203.074219 132.117188 C 203.074219 137.644531 206.1875 142.128906 210.019531 142.128906 C 213.855469 142.128906 216.964844 137.644531 216.964844 132.117188 C 216.964844 126.589844 213.855469 122.113281 210.019531 122.113281"/><path d="M 205.429688 134.921875 C 205.429688 138.574219 207.484375 141.535156 210.019531 141.535156 C 212.554688 141.535156 214.605469 138.574219 214.605469 134.921875 C 214.605469 131.273438 212.554688 128.3125 210.019531 128.3125 C 207.484375 128.3125 205.429688 131.273438 205.429688 134.921875"/><path fill="#FFF" d="M 209.855469 130.371094 C 209.855469 131.054688 210.410156 131.605469 211.089844 131.605469 C 211.773438 131.605469 212.328125 131.054688 212.328125 130.371094 C 212.328125 129.6875 211.773438 129.132812 211.089844 129.132812 C 210.410156 129.132812 209.855469 129.6875 209.855469 130.371094"/><path fill="#FFF" d="M 210.289062 134.25 C 210.289062 135.375 211.203125 136.289062 212.328125 136.289062 C 213.453125 136.289062 214.363281 135.375 214.363281 134.25 C 214.363281 133.125 213.453125 132.210938 212.328125 132.210938 C 211.203125 132.210938 210.289062 133.125 210.289062 134.25"/><path fill="#FFF" d="M 160.050781 122.113281 C 163.886719 122.113281 166.996094 126.589844 166.996094 132.117188 C 166.996094 137.644531 163.886719 142.128906 160.050781 142.128906 C 156.214844 142.128906 153.109375 137.644531 153.109375 132.117188 C 153.109375 126.589844 156.214844 122.113281 160.050781 122.113281"/><path d="M 164.640625 134.921875 C 164.640625 138.574219 162.585938 141.535156 160.054688 141.535156 C 157.519531 141.535156 155.464844 138.574219 155.464844 134.921875 C 155.464844 131.273438 157.519531 128.3125 160.054688 128.3125 C 162.585938 128.3125 164.640625 131.273438 164.640625 134.921875"/><path fill="#FFF" d="M 160.214844 130.371094 C 160.214844 131.054688 159.664062 131.605469 158.980469 131.605469 C 158.300781 131.605469 157.746094 131.054688 157.746094 130.371094 C 157.746094 129.6875 158.300781 129.132812 158.980469 129.132812 C 159.664062 129.132812 160.214844 129.6875 160.214844 130.371094"/><path fill="#FFF" d="M 159.78125 134.25 C 159.78125 135.375 158.871094 136.289062 157.746094 136.289062 C 156.621094 136.289062 155.707031 135.375 155.707031 134.25 C 155.707031 133.125 156.621094 132.210938 157.746094 132.210938 C 158.871094 132.210938 159.78125 133.125 159.78125 134.25"/><path fill="#0089B3" d="M 210.019531 146.296875 C 200.8125 146.296875 193.320312 138.800781 193.320312 129.585938 C 193.320312 129.027344 193.347656 128.476562 193.402344 127.933594 C 193.410156 127.890625 193.414062 127.851562 193.414062 127.808594 C 194.304688 119.429688 201.414062 112.875 210.019531 112.875 C 219.226562 112.875 226.71875 120.371094 226.71875 129.585938 C 226.71875 138.800781 219.226562 146.296875 210.019531 146.296875 Z M 160.054688 146.296875 C 150.84375 146.296875 143.355469 138.800781 143.355469 129.585938 C 143.355469 120.371094 150.84375 112.875 160.054688 112.875 C 168.660156 112.875 175.765625 119.429688 176.65625 127.8125 C 176.660156 127.851562 176.660156 127.890625 176.667969 127.933594 C 176.722656 128.476562 176.753906 129.027344 176.753906 129.585938 C 176.753906 138.800781 169.261719 146.296875 160.054688 146.296875 Z M 210.019531 110.671875 C 200.753906 110.671875 193.027344 117.382812 191.429688 126.199219 C 189.539062 125.570312 187.460938 125.238281 185.335938 125.238281 C 185.234375 125.238281 185.132812 125.253906 185.035156 125.28125 C 184.941406 125.253906 184.839844 125.238281 184.738281 125.238281 C 182.613281 125.238281 180.535156 125.570312 178.644531 126.199219 C 177.042969 117.382812 169.320312 110.671875 160.054688 110.671875 C 149.628906 110.671875 141.152344 119.15625 141.152344 129.585938 C 141.152344 140.015625 149.628906 148.5 160.054688 148.5 C 170.472656 148.5 178.953125 140.015625 178.953125 129.585938 C 178.953125 129.207031 178.941406 128.832031 178.917969 128.457031 C 180.695312 127.804688 182.679688 127.441406 184.738281 127.441406 C 184.839844 127.441406 184.941406 127.421875 185.035156 127.394531 C 185.132812 127.421875 185.234375 127.441406 185.335938 127.441406 C 187.394531 127.441406 189.378906 127.804688 191.15625 128.457031 C 191.132812 128.832031 191.117188 129.207031 191.117188 129.585938 C 191.117188 140.015625 199.597656 148.5 210.019531 148.5 C 220.441406 148.5 228.921875 140.015625 228.921875 129.585938 C 228.921875 119.15625 220.441406 110.671875 210.019531 110.671875"/><path fill="#331603" d="M 155.332031 107.675781 C 155.839844 105.128906 157.320312 102.957031 159.503906 101.535156 C 161.277344 100.378906 163.238281 100.003906 165.335938 100.027344 C 166.859375 100.203125 168.257812 100.570312 169.582031 101.371094 C 170.101562 101.667969 170.554688 102.058594 170.996094 102.464844 C 171.449219 102.882812 170.9375 103.296875 170.492188 103.214844 C 169.984375 103.121094 169.476562 102.804688 168.980469 102.652344 C 168.234375 102.394531 167.457031 102.257812 166.675781 102.160156 C 165.191406 101.890625 163.699219 102.261719 162.265625 102.597656 C 161.3125 102.878906 159.671875 103.832031 158.746094 104.675781 C 157.996094 105.363281 157.378906 106.140625 156.78125 106.957031 C 156.554688 107.277344 156.386719 107.648438 156.183594 107.984375 C 155.921875 108.414062 155.234375 108.191406 155.332031 107.675781"/><path fill="#331603" d="M 213.902344 108.003906 C 213.035156 106.578125 212.128906 105.261719 210.777344 104.238281 C 209.960938 103.621094 208.546875 102.816406 207.804688 102.597656 C 206.375 102.261719 204.882812 101.894531 203.398438 102.160156 C 202.03125 102.328125 200.835938 102.757812 199.554688 103.226562 C 198.996094 103.429688 198.75 102.761719 199.132812 102.414062 C 199.664062 101.933594 200.21875 101.535156 200.828125 101.164062 C 202.210938 100.324219 203.917969 100.019531 205.511719 100.011719 C 207.617188 100.003906 209.660156 100.789062 211.308594 102.078125 C 212.484375 102.988281 213.535156 104.222656 214.109375 105.605469 C 214.367188 106.226562 214.558594 106.816406 214.699219 107.472656 C 214.800781 107.957031 214.28125 108.625 213.902344 108.003906"/><path d="M 185.027344 156.6875 C 183.839844 158.523438 180.234375 159.621094 180.234375 159.621094 C 180.234375 162.730469 181.941406 165.351562 185.035156 165.351562 C 188.132812 165.351562 189.824219 162.730469 189.824219 159.617188 C 189.824219 159.617188 186.21875 158.523438 185.027344 156.6875"/><path fill="#331603" d="M 197.890625 147.011719 C 197.570312 146.855469 197.1875 147.132812 197.242188 147.488281 C 197.277344 147.707031 197.464844 147.8125 197.625 147.933594 C 198.320312 148.441406 199.023438 148.945312 199.679688 149.507812 C 200.429688 150.144531 201.109375 150.925781 201.539062 151.816406 C 201.753906 152.257812 201.90625 152.730469 201.964844 153.214844 C 201.972656 153.253906 201.984375 153.457031 201.992188 153.511719 C 202.070312 156.515625 198.898438 158.089844 196.390625 158.539062 C 194.902344 158.804688 193.347656 158.886719 191.839844 158.828125 C 190.605469 158.78125 188.902344 158.550781 187.914062 158.039062 C 187.304688 157.730469 186.726562 157.382812 186.195312 156.980469 C 186.261719 156.902344 186.332031 156.832031 186.382812 156.738281 L 191.414062 148.019531 C 192.011719 146.984375 191.261719 145.683594 190.066406 145.683594 L 180.007812 145.683594 C 178.808594 145.683594 178.058594 146.984375 178.660156 148.019531 L 183.6875 156.738281 C 183.742188 156.832031 183.808594 156.90625 183.875 156.980469 C 183.347656 157.386719 182.769531 157.734375 182.15625 158.039062 C 179.816406 159.230469 176.070312 159.015625 173.417969 158.488281 C 170.976562 158.003906 167.976562 156.382812 168.082031 153.476562 C 168.113281 152.53125 168.847656 151.046875 169.707031 150.175781 C 170.597656 149.265625 171.625 148.539062 172.648438 147.785156 C 173.117188 147.4375 172.628906 146.796875 172.144531 147.03125 C 171.652344 147.273438 171.164062 147.511719 170.683594 147.773438 C 169.667969 148.335938 168.660156 149.011719 167.875 149.878906 C 165.492188 152.496094 165.777344 156.105469 168.386719 158.488281 C 171.230469 161.085938 175.925781 161.355469 179.542969 160.769531 C 181.574219 160.445312 183.59375 159.550781 185.039062 158.121094 C 185.429688 158.515625 185.855469 158.878906 186.316406 159.199219 C 189.328125 161.273438 193.714844 161.347656 197.175781 160.628906 C 200.589844 159.917969 203.902344 157.511719 203.875 153.699219 C 203.847656 150.304688 200.570312 148.316406 197.890625 147.011719"/><g fill="#FF8D55" fill-opacity=".4"><g><g><path d="M 16.003906 -79.351562 L -24.910156 -57.058594 L -19.382812 -46.914062 L -4 -55.296875 L 20.152344 -10.980469 L 30.292969 -16.507812 L 6.144531 -60.824219 L 21.53125 -69.210938 Z M 16.003906 -79.351562" transform="translate(106.872 92.173)"/></g></g></g><g fill="#FF8D55" fill-opacity=".4"><g><g><path d="M -7.6875 -61.78125 L 3.683594 -64.21875 L 16.628906 -3.800781 L 5.257812 -1.363281 Z M -7.6875 -61.78125" transform="translate(150.17 70.009)"/></g></g></g><g fill="#FF8D55" fill-opacity=".4"><g><g><path d="M 30.789062 -59.675781 L 10.546875 -61.359375 L 5.410156 0.449219 L 25.652344 2.132812 C 41.953125 3.488281 54.691406 -9.378906 56.109375 -26.453125 C 57.53125 -43.527344 46.625 -58.359375 30.789062 -59.675781 Z M 29.832031 -48.164062 C 39.023438 -47.402344 45.503906 -38.304688 44.597656 -27.410156 C 44.136719 -21.847656 42.019531 -16.96875 38.472656 -13.605469 C 36.1875 -11.382812 32.324219 -8.90625 26.609375 -9.378906 L 17.878906 -10.105469 L 21.101562 -48.890625 Z M 29.832031 -48.164062" transform="translate(163.283 63.176)"/></g></g></g><g fill="#FF8D55" fill-opacity=".4"><g><g><path d="M 64.84375 -35.296875 L 41.890625 -17.105469 L 44.78125 -46.28125 L 34.582031 -51.863281 L 30.238281 -7.929688 L 19.925781 10.90625 L 30.058594 16.457031 L 40.371094 -2.382812 L 74.976562 -29.75 Z M 64.84375 -35.296875" transform="translate(210.746 64.867)"/></g></g></g><g fill="#CD2800"><g><g><path d="M 16.003906 -79.351562 L -24.910156 -57.058594 L -19.382812 -46.914062 L -4 -55.296875 L 20.152344 -10.980469 L 30.292969 -16.507812 L 6.144531 -60.824219 L 21.53125 -69.210938 Z M 16.003906 -79.351562" transform="translate(106.872 89.168)"/></g></g></g><g fill="#CD2800"><g><g><path d="M -7.6875 -61.78125 L 3.683594 -64.21875 L 16.628906 -3.800781 L 5.257812 -1.363281 Z M -7.6875 -61.78125" transform="translate(150.17 67.004)"/></g></g></g><g fill="#CD2800"><g><g><path d="M 30.789062 -59.675781 L 10.546875 -61.359375 L 5.410156 0.449219 L 25.652344 2.132812 C 41.953125 3.488281 54.691406 -9.378906 56.109375 -26.453125 C 57.53125 -43.527344 46.625 -58.359375 30.789062 -59.675781 Z M 29.832031 -48.164062 C 39.023438 -47.402344 45.503906 -38.304688 44.597656 -27.410156 C 44.136719 -21.847656 42.019531 -16.96875 38.472656 -13.605469 C 36.1875 -11.382812 32.324219 -8.90625 26.609375 -9.378906 L 17.878906 -10.105469 L 21.101562 -48.890625 Z M 29.832031 -48.164062" transform="translate(163.283 60.171)"/></g></g></g><g fill="#CD2800"><g><g><path d="M 64.84375 -35.296875 L 41.890625 -17.105469 L 44.78125 -46.28125 L 34.582031 -51.863281 L 30.238281 -7.929688 L 19.925781 10.90625 L 30.058594 16.457031 L 40.371094 -2.382812 L 74.976562 -29.75 Z M 64.84375 -35.296875" transform="translate(210.746 61.863)"/></g></g></g><g fill="#0271A7" fill-opacity=".4"><g><g><path d="M 53.804688 -44.269531 C 53.804688 -54.113281 47.988281 -62.023438 32.097656 -62.023438 L 5.425781 -62.023438 L 5.425781 0 L 32.097656 0 C 48.453125 0 53.804688 -10.542969 53.804688 -20.3125 C 53.804688 -24.886719 52.5625 -29.074219 49.617188 -32.25 C 52.640625 -35.351562 53.804688 -39.617188 53.804688 -44.269531 Z M 17.054688 -50.46875 L 36.128906 -50.46875 C 39.773438 -50.46875 42.253906 -47.292969 42.253906 -44.269531 C 42.253906 -41.632812 40.160156 -38.066406 36.128906 -38.066406 L 17.054688 -38.066406 Z M 34.964844 -11.628906 L 17.054688 -11.628906 L 17.054688 -26.515625 L 34.964844 -26.515625 C 38.53125 -26.515625 42.253906 -24.1875 42.253906 -19.070312 C 42.253906 -13.953125 38.375 -11.628906 34.964844 -11.628906 Z M 34.964844 -11.628906" transform="translate(59.487 363.725)"/></g></g></g><g fill="#0271A7" fill-opacity=".4"><g><g><path d="M 34.421875 -62.796875 C 16.902344 -62.796875 2.714844 -48.609375 2.714844 -31.089844 C 2.714844 -13.566406 16.902344 0.621094 34.421875 0.621094 C 51.945312 0.621094 66.132812 -13.566406 66.132812 -31.089844 C 66.132812 -48.609375 51.945312 -62.796875 34.421875 -62.796875 Z M 34.421875 -50.9375 C 45.429688 -50.9375 53.183594 -42.019531 53.183594 -31.089844 C 53.183594 -20.15625 45.429688 -11.242188 34.421875 -11.242188 C 23.492188 -11.242188 15.738281 -20.15625 15.738281 -31.089844 C 15.738281 -42.019531 23.492188 -50.9375 34.421875 -50.9375 Z M 34.421875 -50.9375" transform="translate(118.712 363.725)"/></g></g></g><g fill="#0271A7" fill-opacity=".4"><g><g><path d="M 34.421875 -62.796875 C 16.902344 -62.796875 2.714844 -48.609375 2.714844 -31.089844 C 2.714844 -13.566406 16.902344 0.621094 34.421875 0.621094 C 51.945312 0.621094 66.132812 -13.566406 66.132812 -31.089844 C 66.132812 -48.609375 51.945312 -62.796875 34.421875 -62.796875 Z M 34.421875 -50.9375 C 45.429688 -50.9375 53.183594 -42.019531 53.183594 -31.089844 C 53.183594 -20.15625 45.429688 -11.242188 34.421875 -11.242188 C 23.492188 -11.242188 15.738281 -20.15625 15.738281 -31.089844 C 15.738281 -42.019531 23.492188 -50.9375 34.421875 -50.9375 Z M 34.421875 -50.9375" transform="translate(187.55 363.725)"/></g></g></g><g fill="#0271A7" fill-opacity=".4"><g><g><path d="M 40.003906 0 L 53.882812 0 L 31.863281 -32.5625 L 53.183594 -62.023438 L 39.925781 -62.023438 L 17.054688 -30.546875 L 17.054688 -62.023438 L 5.425781 -62.023438 L 5.425781 0 L 17.054688 0 L 17.054688 -12.25 L 24.730469 -22.871094 Z M 40.003906 0" transform="translate(256.387 363.725)"/></g></g></g><g fill="#0271A7"><g><g><path d="M 53.804688 -44.269531 C 53.804688 -54.113281 47.988281 -62.023438 32.097656 -62.023438 L 5.425781 -62.023438 L 5.425781 0 L 32.097656 0 C 48.453125 0 53.804688 -10.542969 53.804688 -20.3125 C 53.804688 -24.886719 52.5625 -29.074219 49.617188 -32.25 C 52.640625 -35.351562 53.804688 -39.617188 53.804688 -44.269531 Z M 17.054688 -50.46875 L 36.128906 -50.46875 C 39.773438 -50.46875 42.253906 -47.292969 42.253906 -44.269531 C 42.253906 -41.632812 40.160156 -38.066406 36.128906 -38.066406 L 17.054688 -38.066406 Z M 34.964844 -11.628906 L 17.054688 -11.628906 L 17.054688 -26.515625 L 34.964844 -26.515625 C 38.53125 -26.515625 42.253906 -24.1875 42.253906 -19.070312 C 42.253906 -13.953125 38.375 -11.628906 34.964844 -11.628906 Z M 34.964844 -11.628906" transform="translate(59.402 358.88)"/></g></g></g><g fill="#0271A7"><g><g><path d="M 34.421875 -62.796875 C 16.902344 -62.796875 2.714844 -48.609375 2.714844 -31.089844 C 2.714844 -13.566406 16.902344 0.621094 34.421875 0.621094 C 51.945312 0.621094 66.132812 -13.566406 66.132812 -31.089844 C 66.132812 -48.609375 51.945312 -62.796875 34.421875 -62.796875 Z M 34.421875 -50.9375 C 45.429688 -50.9375 53.183594 -42.019531 53.183594 -31.089844 C 53.183594 -20.15625 45.429688 -11.242188 34.421875 -11.242188 C 23.492188 -11.242188 15.738281 -20.15625 15.738281 -31.089844 C 15.738281 -42.019531 23.492188 -50.9375 34.421875 -50.9375 Z M 34.421875 -50.9375" transform="translate(118.627 358.88)"/></g></g></g><g fill="#0271A7"><g><g><path d="M 34.421875 -62.796875 C 16.902344 -62.796875 2.714844 -48.609375 2.714844 -31.089844 C 2.714844 -13.566406 16.902344 0.621094 34.421875 0.621094 C 51.945312 0.621094 66.132812 -13.566406 66.132812 -31.089844 C 66.132812 -48.609375 51.945312 -62.796875 34.421875 -62.796875 Z M 34.421875 -50.9375 C 45.429688 -50.9375 53.183594 -42.019531 53.183594 -31.089844 C 53.183594 -20.15625 45.429688 -11.242188 34.421875 -11.242188 C 23.492188 -11.242188 15.738281 -20.15625 15.738281 -31.089844 C 15.738281 -42.019531 23.492188 -50.9375 34.421875 -50.9375 Z M 34.421875 -50.9375" transform="translate(187.465 358.88)"/></g></g></g><g fill="#0271A7"><g><g><path d="M 40.003906 0 L 53.882812 0 L 31.863281 -32.5625 L 53.183594 -62.023438 L 39.925781 -62.023438 L 17.054688 -30.546875 L 17.054688 -62.023438 L 5.425781 -62.023438 L 5.425781 0 L 17.054688 0 L 17.054688 -12.25 L 24.730469 -22.871094 Z M 40.003906 0" transform="translate(256.302 358.88)"/></g></g></g></svg>