<?xml version="1.0" encoding="utf-8"?>
<!-- Generator: Adobe Illustrator 23.0.1, SVG Export Plug-In . SVG Version: 6.00 Build 0)  -->
<svg version="1.1" id="Layer_1" xmlns="http://www.w3.org/2000/svg" xmlns:xlink="http://www.w3.org/1999/xlink" x="0px" y="0px"
	 viewBox="0 0 229.5 153.1" style="enable-background:new 0 0 229.5 153.1;" xml:space="preserve">
<style type="text/css">
	.st0{fill:url(#path12339_1_);}
	.st1{fill:url(#path12367_1_);}
	.st2{fill:#14559A;}
	.st3{fill:url(#path12459_1_);}
	.st4{fill:#3092C4;}
	.st5{fill:#1969BC;}
	.st6{fill:url(#path12553_1_);}
	.st7{fill:url(#path12581_1_);}
	.st8{fill:url(#path12651_1_);}
	.st9{fill:#2B74B1;}
	.st10{fill:#125A9E;}
	.st11{fill:url(#path12741_1_);}
	.st12{fill:url(#path12803_1_);}
	.st13{fill:#0D82CA;}
	.st14{fill:url(#path12831_1_);}
	.st15{fill:#127BCA;}
	.st16{fill:url(#path12923_1_);}
	.st17{fill:url(#path12949_1_);}
	.st18{fill:#05A1E6;}
	.st19{fill:url(#path12981_1_);}
	.st20{fill:url(#path13003_1_);}
	.st21{fill:url(#path13093_1_);}
	.st22{fill:#079AE1;}
	.st23{fill:#1E5CB3;}
	.st24{fill:#1D60B5;}
	.st25{fill:#175FAB;}
	.st26{fill:url(#path13139_1_);}
	.st27{fill:#7DCBEC;}
	.st28{fill:#5EC5ED;}
	.st29{fill:url(#path13245_1_);}
	.st30{fill:url(#path13255_1_);}
	.st31{fill:url(#path13333_1_);}
</style>
<g>
	<path id="path12245" d="M190.7,83.4h-2v6.3h-0.8v-6.3h-2v-0.8h5v0.8H190.7z"/>
	<path id="path12257" d="M199,89.7h-0.8v-4.8c0-0.4,0-0.8,0-1.4l0,0c0,0.4-0.2,0.6-0.2,0.6l-2.4,5.5h-0.4l-2.4-5.3
		c0-0.2-0.2-0.4-0.2-0.8l0,0c0,0.2,0,0.8,0,1.4v4.8h-0.8v-7.1h1.2l2.2,4.9c0.2,0.4,0.2,0.6,0.4,0.8l0,0c0.2-0.4,0.2-0.6,0.4-0.8
		l2.2-4.9h1L199,89.7L199,89.7z"/>
	
		<linearGradient id="path12339_1_" gradientUnits="userSpaceOnUse" x1="-930.2161" y1="1324.8115" x2="-929.4869" y2="1324.8115" gradientTransform="matrix(0 149.7346 149.7346 0 -198269.4688 139287.6406)">
		<stop  offset="0" style="stop-color:#0994DC"/>
		<stop  offset="0.35" style="stop-color:#66CEF5"/>
		<stop  offset="0.35" style="stop-color:#66CEF5"/>
		<stop  offset="0.8462" style="stop-color:#127BCA"/>
		<stop  offset="0.8462" style="stop-color:#127BCA"/>
		<stop  offset="1" style="stop-color:#127BCA"/>
	</linearGradient>
	<path id="path12339" class="st0" d="M80.2,19.4c8.3,25.1,11.3,70.3,35.4,70.3l0,0c1.8,0,3.8-0.2,5.5-0.6l0,0
		c-22-5.1-24.6-49.7-37.8-72.7l0,0C82.2,17.2,81.2,18.2,80.2,19.4"/>
	
		<linearGradient id="path12367_1_" gradientUnits="userSpaceOnUse" x1="-930.3551" y1="1324.7177" x2="-929.6267" y2="1324.7177" gradientTransform="matrix(0 153.5506 153.5506 0 -203306.5313 142856.1094)">
		<stop  offset="0" style="stop-color:#0E76BC"/>
		<stop  offset="0.36" style="stop-color:#36AEE8"/>
		<stop  offset="0.36" style="stop-color:#36AEE8"/>
		<stop  offset="0.8462" style="stop-color:#00ADEF"/>
		<stop  offset="0.8462" style="stop-color:#00ADEF"/>
		<stop  offset="1" style="stop-color:#00ADEF"/>
	</linearGradient>
	<path id="path12367" class="st1" d="M83.2,16.4c13.5,23,16,67.5,37.8,72.7l0,0c1.8-0.4,3.4-0.8,5.1-1.4l0,0
		C106.5,78,101,34.8,85.7,14.1l0,0C85.2,14.6,84.2,15.4,83.2,16.4"/>
	<path id="path12379" class="st2" d="M102.6,2.6c-1.8,0-3.8,0.2-5.5,0.6c-4.9,1-9.9,3-14.8,6.1c1.4,1.4,2.6,3,4,4.6
		c5.1-4.2,10.1-7.3,15.2-9.3c2-0.8,3.8-1.2,5.7-1.6C105.5,2.8,104,2.6,102.6,2.6"/>
	
		<linearGradient id="path12459_1_" gradientUnits="userSpaceOnUse" x1="-943.0729" y1="1317.5623" x2="-942.3439" y2="1317.5623" gradientTransform="matrix(0 -122.178 -122.178 0 161104.6719 -115136.0469)">
		<stop  offset="0" style="stop-color:#1C63B7"/>
		<stop  offset="0.5" style="stop-color:#33BDF2"/>
		<stop  offset="1" style="stop-color:#33BDF2;stop-opacity:0.4196"/>
	</linearGradient>
	<path id="path12459" class="st3" d="M141.8,78.8c2-1.6,4-3.4,6.1-5.3c-8.3-25.1-11.3-70.7-35.6-70.7c-1.8,0-3.6,0.2-5.1,0.4
		C128.9,8.7,131.9,56.8,141.8,78.8"/>
	<path id="path12521" class="st4" d="M106.9,3.2c-1.4-0.4-2.8-0.6-4.4-0.6h9.5C110.3,2.8,108.5,2.8,106.9,3.2"/>
	<path id="path12525" class="st5" d="M141.2,84.1c-1-1-1.8-2-2.8-3c-4.2,3-8.1,5.1-12.3,6.5c1.4,0.8,3,1.2,4.6,1.6
		c1.2,0.2,2.6,0.4,4,0.4c4.6,0,8.1-0.6,11.1-2C144.4,86.7,142.8,85.5,141.2,84.1"/>
	
		<linearGradient id="path12553_1_" gradientUnits="userSpaceOnUse" x1="-930.5404" y1="1324.566" x2="-929.8105" y2="1324.566" gradientTransform="matrix(0 159.4252 159.4252 0 -211047.7188 148339.3438)">
		<stop  offset="0" style="stop-color:#166AB8"/>
		<stop  offset="0.4" style="stop-color:#36AEE8"/>
		<stop  offset="0.4" style="stop-color:#36AEE8"/>
		<stop  offset="0.8462" style="stop-color:#0798DD"/>
		<stop  offset="0.8462" style="stop-color:#0798DD"/>
		<stop  offset="1" style="stop-color:#0798DD"/>
	</linearGradient>
	<path id="path12553" class="st6" d="M101.2,4.8C121,15,122.8,62,138.6,81.2l0,0c1-0.8,2.2-1.6,3.2-2.4l0,0
		c-9.9-22-12.7-70.1-34.8-75.6l0,0C105,3.6,103.2,4,101.2,4.8"/>
	
		<linearGradient id="path12581_1_" gradientUnits="userSpaceOnUse" x1="-930.8747" y1="1324.4019" x2="-930.1453" y2="1324.4019" gradientTransform="matrix(0 169.5276 169.5276 0 -224410.4063 157797.4688)">
		<stop  offset="0" style="stop-color:#124379"/>
		<stop  offset="0.39" style="stop-color:#1487CB"/>
		<stop  offset="0.39" style="stop-color:#1487CB"/>
		<stop  offset="0.7802" style="stop-color:#165197"/>
		<stop  offset="0.7802" style="stop-color:#165197"/>
		<stop  offset="1" style="stop-color:#165197"/>
	</linearGradient>
	<path id="path12581" class="st7" d="M85.9,14.1c15.2,20.8,20.6,63.9,40.4,73.6l0,0c4-1.4,8.1-3.6,12.3-6.5l0,0
		c-15.8-19-17.6-65.9-37.4-76.4l0,0C96.2,6.5,91.1,9.7,85.9,14.1"/>
	
		<linearGradient id="path12651_1_" gradientUnits="userSpaceOnUse" x1="148.3071" y1="-963.7723" x2="152.6345" y2="-963.7723" gradientTransform="matrix(4.0385 0 0 -4.0385 -536.2911 -3865.5444)">
		<stop  offset="0" style="stop-color:#33BDF2;stop-opacity:0.698"/>
		<stop  offset="1" style="stop-color:#1DACD8"/>
	</linearGradient>
	<path id="path12651" class="st8" d="M70.3,18.8c-2.4,5.3-4.8,12.5-7.7,21.8c5.9-8.3,11.7-15.2,17.4-21.2c-0.8-2.4-1.6-4.8-2.6-6.7
		C75.3,14.5,72.9,16.4,70.3,18.8"/>
	<path id="path12655" class="st9" d="M79.6,11.1c-0.8,0.6-1.4,1-2.2,1.6c1,2,1.8,4.4,2.6,6.7c1-1,2.2-2,3.2-3
		C82.2,14.5,81,12.7,79.6,11.1"/>
	<path id="path12659" class="st10" d="M82.2,9.3c-0.8,0.6-1.6,1-2.6,1.6c1.4,1.6,2.6,3.4,3.6,5.3c1-0.8,1.8-1.6,2.8-2.4
		C84.8,12.3,83.6,10.7,82.2,9.3"/>
	
		<linearGradient id="path12741_1_" gradientUnits="userSpaceOnUse" x1="-943.2655" y1="1317.6661" x2="-942.5356" y2="1317.6661" gradientTransform="matrix(0 -119.0183 -119.0183 0 157020.2344 -112181.1094)">
		<stop  offset="0" style="stop-color:#136AB4"/>
		<stop  offset="0.6" style="stop-color:#59CAF5;stop-opacity:0.549"/>
		<stop  offset="1" style="stop-color:#59CAF5;stop-opacity:0.2353"/>
	</linearGradient>
	<path id="path12741" class="st11" d="M217.2,0.8c-11.3,43.2-34.6,78-54.2,86.7l0,0c-0.4,0.2-0.8,0.4-1,0.4c0,0,0,0-0.2,0
		s-0.2,0-0.4,0.2c0,0,0,0-0.2,0s-0.4,0.2-0.4,0.2h-0.2h-0.2h-0.2H160c-0.2,0-0.2,0-0.4,0.2h-0.2h-0.2H159c-0.2,0-0.2,0-0.4,0
		s-0.2,0-0.4,0c0.8,0.4,1.8,0.4,2.8,0.4c18.6,0,37.4-33.3,68.5-88.9L217.2,0.8L217.2,0.8z"/>
	
		<linearGradient id="path12803_1_" gradientUnits="userSpaceOnUse" x1="132.9511" y1="-969.0219" x2="148.9966" y2="-969.0219" gradientTransform="matrix(4.0385 0 0 -4.0385 -536.2911 -3865.5444)">
		<stop  offset="0" style="stop-color:#05A1E6;stop-opacity:0.2471"/>
		<stop  offset="1" style="stop-color:#05A1E6"/>
	</linearGradient>
	<path id="path12803" class="st12" d="M58.6,4.4L58.6,4.4L58.6,4.4L58.6,4.4c0.2,0,0.4-0.2,0.4-0.2l0,0l0,0c0.2,0,0.2,0,0.4-0.2l0,0
		c0.2,0,0.4-0.2,0.8-0.2c0,0,0,0,0.2,0s0.2,0,0.4,0c0,0,0,0,0.2,0s0.2,0,0.4,0c0,0,0,0,0.2,0c0.4,0,0.6-0.2,1-0.2c0,0,0,0,0.2,0
		s0.2,0,0.4,0c0,0,0,0,0.2,0c0,0,0.2,0,0.4,0l0,0c0.2,0,0.4,0,0.6-0.2c0,0,0,0,0.2,0s0.2,0,0.2,0H65h0.2c0,0,0,0,0.2,0s0.4,0,0.6,0
		c-0.6,0-1.4-0.2-2-0.2C43,3.2,14.1,42,1.2,92.5c0,0,1,0,2.6,0c4.2-7.3,7.9-14.5,11.3-21C23.6,35.2,42.2,10.9,58.6,4.4"/>
	<path id="path12807" class="st13" d="M70.3,18.8c2.4-2.2,4.8-4.4,7.1-6.1c-0.6-1.2-1.2-2.4-1.8-3.4C73.9,11.7,72.1,14.6,70.3,18.8"
		/>
	<path id="path12811" class="st13" d="M72.1,4.8c1.4,1.2,2.6,2.8,3.8,4.6c0.4-0.4,0.8-0.8,1-1.2c-1.6-1.4-3.2-2.6-5.1-3.6
		C71.9,4.6,72.1,4.6,72.1,4.8L72.1,4.8"/>
	
		<linearGradient id="path12831_1_" gradientUnits="userSpaceOnUse" x1="-943.0977" y1="1317.2716" x2="-942.3705" y2="1317.2716" gradientTransform="matrix(0 -121.8652 -121.8652 0 160566.125 -114843.7813)">
		<stop  offset="0" style="stop-color:#318ED5"/>
		<stop  offset="1" style="stop-color:#38A7E4"/>
	</linearGradient>
	<path id="path12831" class="st14" d="M14.5,70.9C33.7,34.1,42.6,10.7,58.6,4.4l0,0C42.2,10.9,23.6,35.2,14.5,70.9"/>
	<path id="path12843" class="st15" d="M76.8,8.1c-0.4,0.4-0.8,0.8-1,1.2c0.6,1,1.2,2.2,1.8,3.4c0.8-0.6,1.4-1,2.2-1.6
		C78.8,9.9,77.8,8.9,76.8,8.1"/>
	
		<linearGradient id="path12923_1_" gradientUnits="userSpaceOnUse" x1="-943.2969" y1="1317.1664" x2="-942.5684" y2="1317.1664" gradientTransform="matrix(0 -118.4596 -118.4596 0 156073.2969 -111655.1563)">
		<stop  offset="0" style="stop-color:#05A1E6"/>
		<stop  offset="1" style="stop-color:#05A1E6;stop-opacity:0.549"/>
	</linearGradient>
	<path id="path12923" class="st16" d="M23.2,91.7L23.2,91.7c-0.2,0-0.2,0-0.4,0l0,0c-0.2,0-0.2,0-0.2,0l0,0c-0.2,0-0.4,0-0.8,0l0,0
		c19.4-0.6,28.1-10.3,32.5-24.4c3.4-10.7,6.1-19.6,8.5-27.1c-8.1,11.5-16.2,24.9-24.4,40.2C34.3,87.9,28.3,91.1,23.2,91.7"/>
	
		<linearGradient id="path12949_1_" gradientUnits="userSpaceOnUse" x1="-944.5971" y1="1316.3893" x2="-943.8668" y2="1316.3893" gradientTransform="matrix(0 -100.1002 -100.1002 0 131817.5781 -94462.6563)">
		<stop  offset="0" style="stop-color:#1959A6"/>
		<stop  offset="0.5" style="stop-color:#05A1E6"/>
		<stop  offset="0.5" style="stop-color:#05A1E6"/>
		<stop  offset="0.9176" style="stop-color:#7EC5EA"/>
		<stop  offset="1" style="stop-color:#7EC5EA"/>
	</linearGradient>
	<path id="path12949" class="st17" d="M23.2,91.7L23.2,91.7c5.1-0.6,11.1-3.8,15-11.1l0,0c8.1-15.2,16.2-28.9,24.4-40.2l0,0
		c3-9.3,5.3-16.2,7.7-21.8l0,0C54.3,34.1,38,59.6,23.2,91.7"/>
	<path id="path12961" class="st18" d="M14.5,70.9c-3.4,6.5-7.1,13.7-11.3,21c1.8,0,4.4,0,7.3,0C11.3,84.5,12.7,77.4,14.5,70.9"/>
	
		<linearGradient id="path12981_1_" gradientUnits="userSpaceOnUse" x1="-944.5212" y1="1318.2887" x2="-943.791" y2="1318.2887" gradientTransform="matrix(-19.138 -108.5369 -108.5369 19.138 125055.4375 -127657.6172)">
		<stop  offset="0" style="stop-color:#165096"/>
		<stop  offset="1" style="stop-color:#0D82CA"/>
	</linearGradient>
	<path id="path12981" class="st19" d="M64.8,2.8L64.8,2.8L64.8,2.8c-0.2,0-0.4,0-0.4,0l0,0h-0.2l0,0c-0.2,0-0.2,0-0.2,0l0,0
		c0,0,0,0-0.2,0l0,0c-0.2,0-0.4,0-0.6,0.2l0,0l0,0l0,0C63,3,63,3,62.8,3l0,0h-0.2l0,0c-0.2,0-0.2,0-0.2,0l0,0c0,0,0,0-0.2,0l0,0
		c-0.4,0-0.6,0.2-1,0.2l0,0c0,0,0,0-0.2,0l0,0c-0.2,0-0.2,0-0.4,0l0,0c0,0,0,0-0.2,0l0,0c-0.2,0-0.2,0-0.4,0l0,0c0,0,0,0-0.2,0l0,0
		c-0.2,0-0.4,0.2-0.8,0.2l0,0l0,0l0,0c-0.2,0-0.2,0-0.4,0.2l0,0c0,0,0,0-0.2,0l0,0c-0.2,0-0.2,0-0.4,0.2l0,0c0,0,0,0-0.2,0l0,0
		c-16,6.3-24.9,29.7-44.1,66.5l0,0c-1.8,6.5-3.2,13.7-4,21l0,0h1c3,0,3.8,0,6.9,0l0,0h0.2h0.4h0.2l0,0h0.2l0,0l0,0h0.2h0.4h0.4H20
		l0,0c0.2,0,0.4,0,0.6,0l0,0c0.2,0,0.4,0,0.8,0l0,0l0,0l0,0c0.2,0,0.2,0,0.2,0l0,0l0,0l0,0c0.2,0,0.2,0,0.4,0l0,0l0,0
		c14.8-32.1,31.1-57.6,47.3-73.1l0,0c1.8-4,3.6-7.1,5.3-9.5l0,0c-1.2-2-2.4-3.6-3.8-4.6l0,0l0,0l0,0c0,0-0.2,0-0.2-0.2l0,0
		c0,0-0.2,0-0.2-0.2l0,0c0,0-0.2,0-0.2-0.2l0,0c0,0-0.2,0-0.2-0.2l0,0h-0.2l0,0c-0.2,0-0.2-0.2-0.4-0.2l0,0h-0.2l0,0
		c-0.2,0-0.2,0-0.4-0.2l0,0h-0.2l0,0c-0.2,0-0.4-0.2-0.4-0.2l0,0l0,0l0,0c-0.2,0-0.4,0-0.6-0.2l0,0c0,0,0,0-0.2,0l0,0
		c-0.2,0-0.2,0-0.4-0.2l0,0l0,0l0,0c-0.4,0-0.8-0.2-1-0.2l0,0c0,0,0,0-0.2,0l0,0c-0.2,0-0.4,0-0.4,0l0,0l0,0l0,0c-0.2,0-0.4,0-0.6,0
		l0,0l0,0l0,0c-0.2,0-0.2,0-0.4,0l0,0C65.2,2.8,65,2.8,64.8,2.8"/>
	
		<linearGradient id="path13003_1_" gradientUnits="userSpaceOnUse" x1="-951.4072" y1="1313.3374" x2="-950.6783" y2="1313.3374" gradientTransform="matrix(0 -56.7206 -56.7206 0 74672.2344 -53922.1523)">
		<stop  offset="0" style="stop-color:#05A1E6"/>
		<stop  offset="0.8736" style="stop-color:#0495D6"/>
		<stop  offset="1" style="stop-color:#0495D6"/>
	</linearGradient>
	<path id="path13003" class="st20" d="M173.5,24.7c-3.8,11.7-6.7,21.6-9.3,29.5l0,0c10.1-13.9,20-31.3,29.5-51.5l0,0
		C182.8,6.1,176.8,14.1,173.5,24.7"/>
	
		<linearGradient id="path13093_1_" gradientUnits="userSpaceOnUse" x1="-930.1509" y1="1326.0651" x2="-929.4218" y2="1326.0651" gradientTransform="matrix(-23.0627 130.7947 130.7947 23.0627 -194695.7969 91073.3594)">
		<stop  offset="0" style="stop-color:#38A7E4;stop-opacity:0.3294"/>
		<stop  offset="0.9615" style="stop-color:#0E88D3"/>
		<stop  offset="0.9615" style="stop-color:#0E88D3"/>
		<stop  offset="1" style="stop-color:#0E88D3"/>
	</linearGradient>
	<path id="path13093" class="st21" d="M164.5,86.7c-0.6,0.2-1,0.6-1.6,0.8c19.6-8.7,43-43.6,54.2-86.7H215
		C189.3,46.7,181,77.6,164.5,86.7"/>
	<path id="path13097" class="st22" d="M151.9,82.8c4.4-5.1,7.7-14.1,12.5-28.7c-5.5,7.5-11.1,14.1-16.4,19.2l0,0
		C148.9,77,150.3,80.2,151.9,82.8"/>
	<path id="path13101" class="st5" d="M151.9,82.8c-1.4,1.8-3,3.2-4.8,4.2c-0.4,0.2-0.8,0.4-1.2,0.6c1.8,1,3.8,1.6,5.9,2l0,0l0,0
		c0.4,0,0.6,0,1,0l0,0c0.2,0,0.4,0,0.4,0l0,0c0.2,0,0.4,0,0.4,0c0.2,0,0.4,0,0.6,0h0.2c0.2,0,0.2,0,0.4,0h0.2c0.2,0,0.2,0,0.4,0l0,0
		c0,0,0,0,0.2,0s0.2,0,0.4,0l0,0c0,0,0,0,0.2,0s0.2,0,0.4,0c0,0,0,0,0.2,0s0.4,0,0.4,0l0,0l0,0c0.4,0,0.6-0.2,1-0.2
		C155.6,88.1,153.7,85.9,151.9,82.8"/>
	<path id="path13105" class="st23" d="M115.6,89.5c1.8,0,3.8-0.2,5.5-0.6c1.8-0.4,3.4-0.8,5.1-1.4c1.4,0.8,3,1.2,4.6,1.6
		c1.2,0.2,2.6,0.4,4,0.4H115.6z"/>
	<path id="path13109" class="st23" d="M134.8,89.5c4.6,0,8.1-0.6,11.1-2c1.8,1,3.8,1.6,5.9,2l0,0l0,0c0.4,0,0.6,0,1,0l0,0
		c0.2,0,0.4,0,0.4,0l0,0c0.2,0,0.4,0,0.4,0H134.8L134.8,89.5z"/>
	<path id="path13113" class="st24" d="M154.1,89.5c0.2,0,0.4,0,0.6,0h0.2c0.2,0,0.2,0,0.4,0h0.2c0.2,0,0.2,0,0.4,0l0,0
		c0,0,0,0,0.2,0s0.2,0,0.4,0l0,0c0,0,0,0,0.2,0s0.2,0,0.4,0c0,0,0,0,0.2,0s0.4,0,0.4,0l0,0l0,0c0.4,0,0.6-0.2,1-0.2l0,0
		c0.8,0.4,1.8,0.4,2.8,0.4L154.1,89.5L154.1,89.5z"/>
	<path id="path13117" class="st25" d="M147.7,73.5L147.7,73.5c-2,2-4,3.8-6.1,5.3c-1,0.8-2.2,1.6-3.2,2.4c0.8,1,1.8,2,2.8,3
		c1.4,1.4,3,2.6,4.8,3.6c0.4-0.2,0.8-0.4,1.2-0.6c1.8-1,3.2-2.4,4.8-4.2C150.3,80.2,148.9,77,147.7,73.5"/>
	
		<linearGradient id="path13139_1_" gradientUnits="userSpaceOnUse" x1="-928.9711" y1="1325.2601" x2="-928.2414" y2="1325.2601" gradientTransform="matrix(0 123.7424 123.7424 0 -163807.3594 114953.4297)">
		<stop  offset="0" style="stop-color:#168CD4"/>
		<stop  offset="0.5" style="stop-color:#1C87CC"/>
		<stop  offset="1" style="stop-color:#154B8D"/>
	</linearGradient>
	<path id="path13139" class="st26" d="M207.9,0.8h-9.5c-0.4,0-0.6,0-1,0l0,0c-0.4,0-0.6,0-1,0l0,0l0,0c-0.6,0-1.2,0-1.8,0l0,0
		c-0.2,0.6-0.6,1.2-0.8,1.8l0,0c-9.5,20.2-19.4,37.6-29.5,51.5l0,0c-4.8,14.7-8.3,23.4-12.5,28.7l0,0c1.8,3.2,4,5.3,6.5,6.1l0,0h0.2
		l0,0l0,0l0,0c0,0,0,0,0.2,0l0,0c0.2,0,0.2,0,0.4,0l0,0h0.2l0,0h0.2l0,0h0.2l0,0c0.2,0,0.2,0,0.4-0.2l0,0h0.2l0,0h0.2l0,0h0.2l0,0
		h0.2l0,0c0.2,0,0.4-0.2,0.4-0.2l0,0c0,0,0,0,0.2,0l0,0c0.2,0,0.2,0,0.4-0.2l0,0c0,0,0,0,0.2,0l0,0c0.4-0.2,0.8-0.2,1-0.4l0,0l0,0
		l0,0c0.6-0.2,1-0.4,1.6-0.8l0,0c16.4-9.1,24.7-40,50.5-85.9l0,0L207.9,0.8L207.9,0.8z"/>
	<path id="path13231" class="st27" d="M65.4,2.8C65.6,2.8,65.6,2.8,65.4,2.8c0.2,0,0.4,0,0.4,0s0,0,0.2,0s0.4,0,0.6,0l0,0
		c0.2,0,0.4,0,0.4,0s0,0,0.2,0c0.4,0,0.8,0.2,1,0.2l0,0c0.2,0,0.2,0,0.4,0.2c0,0,0,0,0.2,0s0.4,0,0.6,0.2l0,0c0.2,0,0.2,0.2,0.4,0.2
		H70c0.2,0,0.2,0,0.4,0.2h0.2C70.8,3.8,70.8,4,71,4h0.2c0,0,0.2,0,0.2,0.2c0,0,0.2,0,0.2,0.2c0,0,0.2,0,0.2,0.2
		c1.8,1,3.6,2.2,5.1,3.6c0.6-0.6,1.2-1.2,1.8-1.6C75.3,4.2,71.4,2.8,67,2.8C66.5,2.8,65.9,2.8,65.4,2.8"/>
	<path id="path13235" class="st28" d="M76.8,8.1c1,0.8,1.8,1.8,2.8,3c0.8-0.6,1.6-1.2,2.6-1.6c-1.2-1.2-2.2-2-3.4-3
		C78,6.9,77.4,7.5,76.8,8.1"/>
	<g id="g13243" transform="matrix(5.0481458,0,0,-5.0481458,-9064.2597,2270.6096)">
		
			<linearGradient id="path13245_1_" gradientUnits="userSpaceOnUse" x1="2174.1914" y1="440.8414" x2="2174.9202" y2="440.8414" gradientTransform="matrix(726.3716 -301.2769 -301.2769 -726.3716 -1444646.375 975698.375)">
			<stop  offset="0" style="stop-color:#97D6EE"/>
			<stop  offset="0.7033" style="stop-color:#55C1EA"/>
			<stop  offset="1" style="stop-color:#55C1EA"/>
		</linearGradient>
		<path id="path13245" class="st29" d="M1808.5,449.3c0.2,0,0.2,0,0.4,0c0.8,0,1.6-0.2,2.4-0.8c0.8,0.6,1.6,0.8,2.8,0.8H1808.5
			L1808.5,449.3"/>
	</g>
	<g id="g13253" transform="matrix(5.0481458,0,0,-5.0481458,-9064.2597,2270.6096)">
		
			<linearGradient id="path13255_1_" gradientUnits="userSpaceOnUse" x1="2174.0173" y1="441.0015" x2="2174.7429" y2="441.0015" gradientTransform="matrix(573.6859 260.0719 260.0719 -573.6859 -1360083.75 -311956.375)">
			<stop  offset="0" style="stop-color:#7ACCEC"/>
			<stop  offset="1" style="stop-color:#3FB7ED"/>
		</linearGradient>
		<path id="path13255" class="st30" d="M1813.8,449.3c-1.2,0-2-0.2-2.8-0.8c0.2-0.2,0.4-0.4,0.6-0.6c1,0.6,2,1,3,1.2
			c0.4,0,0.8,0.2,1.2,0.2L1813.8,449.3L1813.8,449.3z"/>
	</g>
	
		<linearGradient id="path13333_1_" gradientUnits="userSpaceOnUse" x1="-928.829" y1="1325.3765" x2="-928.101" y2="1325.3765" gradientTransform="matrix(0 121.0325 121.0325 0 -160242.4844 112423.7969)">
		<stop  offset="0" style="stop-color:#1DA7E7"/>
		<stop  offset="1" style="stop-color:#37ABE7;stop-opacity:0"/>
	</linearGradient>
	<path id="path13333" class="st31" d="M164.3,54.2c2.6-7.9,5.5-17.6,9.3-29.5c3.4-10.7,9.1-18.6,20.2-22c0.2-0.6,0.6-1.2,0.8-1.8
		c-18,1-26.3,10.3-30.7,23.8c-7.3,23.8-11.9,39-16.2,48.7C153.3,68.1,158.8,61.6,164.3,54.2"/>
</g>
<g>
	<g>
		<path d="M0,148c0-3,2.1-5.1,4.9-5.1c2.9,0,4.9,2.1,4.9,5.1c0,2.9-1.9,5.1-4.9,5.1C2,153.1,0,150.9,0,148z"/>
		<path d="M12.6,152.4v-43.8h9.1L33,127.4c2.9,4.9,5.5,9.9,7.5,14.7h0.1c-0.5-5.8-0.7-11.5-0.7-18.2v-15.3h7.4v43.8H39l-11.4-19.2
			c-2.8-4.8-5.7-10.2-7.9-15.1l-0.2,0.1c0.3,5.7,0.4,11.4,0.4,18.6v15.7h-7.3V152.4z"/>
		<path d="M76,133H59.5v12.9H78v6.6H51.6v-43.8H77v6.6H59.5v11.3H76V133z"/>
		<path d="M91,115.3H78.6v-6.7h33.1v6.7H99v37.1h-8V115.3z"/>
	</g>
	<g>
		<path d="M155.5,133.1c-0.3-6.2-0.7-13.6-0.6-19.1h-0.2c-1.4,5.2-3.1,10.7-5.1,16.8l-7.1,21.5h-4l-6.5-21.1
			c-1.9-6.2-3.5-11.9-4.7-17.2h-0.1c-0.1,5.5-0.4,12.9-0.8,19.6l-1.1,19h-5l2.8-44.2h6.6l6.9,21.4c1.7,5.4,3.1,10.3,4.1,14.9h0.2
			c1-4.5,2.5-9.3,4.3-14.9l7.2-21.4h6.6l2.5,44.2h-5.1L155.5,133.1z"/>
		<path d="M178.5,152.5l-13.2-44.2h5.6l6.3,21.8c1.7,6,3.2,11.4,4.3,16.5h0.1c1.1-5.1,2.8-10.7,4.6-16.5l6.8-21.9h5.6l-14.4,44.2
			L178.5,152.5L178.5,152.5z"/>
		<path d="M228.2,151c-1.9,1-5.7,2.1-10.7,2.1c-11.4,0-19.9-7.9-19.9-22.4c0-13.8,8.6-23.2,21.1-23.2c5,0,8.2,1.2,9.6,2l-1.3,4.7
			c-2-1-4.8-1.8-8.1-1.8c-9.5,0-15.7,6.6-15.7,18.2c0,10.8,5.7,17.8,15.5,17.8c3.2,0,6.4-0.7,8.5-1.8L228.2,151z"/>
	</g>
</g>
</svg>
